<?xml version="1.0" encoding="UTF-8"?>
<!-- Generator: Adobe Illustrator 23.0.3, SVG Export Plug-In . SVG Version: 6.00 Build 0)  -->
<svg xmlns="http://www.w3.org/2000/svg" xmlns:xlink="http://www.w3.org/1999/xlink" version="1.1" id="Layer_1" x="0px" y="0px" viewBox="0 0 155 155" style="enable-background:new 0 0 155 155;" xml:space="preserve">
<style type="text/css">
	.st0{fill-rule:evenodd;clip-rule:evenodd;fill:#0A0203;}
	.st1{fill:#FFFFFF;}
	.st2{fill-rule:evenodd;clip-rule:evenodd;fill:#A2C231;}
</style>
<g>
	<path class="st0" d="M77.5,0c42.8,0,77.5,34.7,77.5,77.5c0,42.79-34.7,77.5-77.5,77.5C34.71,155,0,120.29,0,77.5   C0,34.71,34.71,0,77.5,0L77.5,0z"></path>
	<g>
		<polygon class="st1" points="124.25,102.79 118.99,102.79 118.99,79.44 124.25,79.44 124.25,102.79   "></polygon>
		<polygon class="st1" points="113.64,102.79 108.37,102.79 108.37,93.28 98.69,93.28 98.69,102.79 93.43,102.79 93.43,79.44     98.69,79.44 98.69,88.75 108.37,88.75 108.37,79.44 113.64,79.44 113.64,102.79   "></polygon>
		<path class="st1" d="M73.66,101.89v-5.22c0.94,0.8,1.97,1.39,3.08,1.78c1.11,0.4,2.22,0.6,3.35,0.6c0.66,0,1.24-0.06,1.73-0.18    c0.49-0.12,0.91-0.28,1.24-0.49c0.33-0.22,0.58-0.46,0.74-0.75c0.17-0.29,0.24-0.6,0.24-0.94c0-0.46-0.13-0.86-0.39-1.22    c-0.26-0.36-0.62-0.69-1.07-0.99c-0.45-0.31-0.98-0.6-1.61-0.88c-0.62-0.28-1.28-0.57-2-0.87c-1.82-0.76-3.19-1.68-4.08-2.79    c-0.89-1.09-1.34-2.42-1.34-3.97c0-1.22,0.24-2.26,0.73-3.14c0.49-0.88,1.16-1.6,2-2.16c0.85-0.56,1.82-0.98,2.92-1.24    c1.11-0.27,2.28-0.39,3.52-0.39c1.22,0,2.3,0.07,3.23,0.22c0.94,0.14,1.81,0.37,2.6,0.68v4.87c-0.4-0.27-0.82-0.51-1.28-0.72    c-0.46-0.21-0.94-0.38-1.43-0.52c-0.48-0.13-0.97-0.23-1.46-0.3c-0.48-0.06-0.94-0.09-1.37-0.09c-0.6,0-1.14,0.06-1.63,0.17    c-0.49,0.12-0.9,0.28-1.24,0.48c-0.33,0.21-0.6,0.45-0.78,0.74c-0.18,0.29-0.27,0.61-0.27,0.97c0,0.39,0.1,0.74,0.31,1.05    c0.21,0.31,0.5,0.61,0.88,0.88c0.38,0.27,0.85,0.54,1.39,0.81c0.54,0.27,1.16,0.54,1.84,0.82c0.94,0.39,1.77,0.81,2.51,1.25    c0.74,0.44,1.38,0.94,1.91,1.49c0.53,0.56,0.94,1.19,1.22,1.9c0.28,0.71,0.42,1.53,0.42,2.48c0,1.31-0.24,2.4-0.74,3.29    c-0.49,0.88-1.16,1.6-2.01,2.15c-0.85,0.55-1.83,0.95-2.96,1.18c-1.12,0.24-2.31,0.36-3.56,0.36c-1.28,0-2.5-0.11-3.65-0.32    C75.51,102.65,74.51,102.33,73.66,101.89L73.66,101.89z"></path>
		<path class="st1" d="M69.65,92.68c0,7.01-3.27,10.52-9.8,10.52c-6.34,0-9.51-3.43-9.51-10.27V79.44h5.28v13.55    c0,3.78,1.48,5.67,4.43,5.67c2.9,0,4.35-1.82,4.35-5.48V79.44h5.26V92.68L69.65,92.68z"></path>
		<path class="st1" d="M30.85,101.89v-5.22c0.95,0.8,1.97,1.39,3.08,1.78c1.11,0.4,2.22,0.6,3.35,0.6c0.66,0,1.24-0.06,1.73-0.18    c0.49-0.12,0.91-0.28,1.24-0.49c0.33-0.22,0.58-0.46,0.74-0.75c0.17-0.29,0.24-0.6,0.24-0.94c0-0.46-0.13-0.86-0.39-1.22    c-0.26-0.36-0.62-0.69-1.07-0.99c-0.45-0.31-0.98-0.6-1.61-0.88c-0.62-0.28-1.28-0.57-2-0.87c-1.82-0.76-3.19-1.68-4.08-2.79    c-0.9-1.09-1.34-2.42-1.34-3.97c0-1.22,0.24-2.26,0.73-3.14c0.49-0.88,1.16-1.6,2-2.16c0.84-0.56,1.82-0.98,2.92-1.24    c1.11-0.27,2.28-0.39,3.52-0.39c1.22,0,2.3,0.07,3.23,0.22c0.94,0.14,1.81,0.37,2.6,0.68v4.87c-0.39-0.27-0.82-0.51-1.28-0.72    c-0.46-0.21-0.94-0.38-1.43-0.52c-0.48-0.13-0.97-0.23-1.46-0.3c-0.48-0.06-0.94-0.09-1.37-0.09c-0.6,0-1.14,0.06-1.63,0.17    c-0.49,0.12-0.9,0.28-1.24,0.48c-0.33,0.21-0.59,0.45-0.78,0.74c-0.18,0.29-0.27,0.61-0.27,0.97c0,0.39,0.1,0.74,0.3,1.05    c0.21,0.31,0.5,0.61,0.88,0.88c0.38,0.27,0.84,0.54,1.39,0.81c0.54,0.27,1.16,0.54,1.84,0.82c0.93,0.39,1.77,0.81,2.51,1.25    c0.74,0.44,1.38,0.94,1.91,1.49c0.53,0.56,0.94,1.19,1.22,1.9c0.28,0.71,0.42,1.53,0.42,2.48c0,1.31-0.25,2.4-0.74,3.29    c-0.49,0.88-1.16,1.6-2.01,2.15c-0.84,0.55-1.83,0.95-2.96,1.18c-1.12,0.24-2.31,0.36-3.56,0.36c-1.28,0-2.5-0.11-3.65-0.32    C32.7,102.65,31.69,102.33,30.85,101.89L30.85,101.89z"></path>
		<path class="st1" d="M124.25,66.35c0,6.37-3.49,9.56-10.49,9.56c-6.69,0-10.05-3.06-10.05-9.2V52.83h3.23v13.71    c0,4.65,2.39,6.98,7.16,6.98c4.61,0,6.91-2.25,6.91-6.74V52.83h3.23V66.35L124.25,66.35z"></path>
		<path class="st1" d="M99.35,75.74h-4.51L84.18,65.36c-0.4-0.39-0.64-0.65-0.73-0.79h-0.08v11.17h-3.23v-22.7h3.23v10.67h0.08    c0.18-0.23,0.42-0.49,0.73-0.77l10.31-9.89h4.03L86.68,63.93L99.35,75.74L99.35,75.74z"></path>
		<path class="st1" d="M58.97,72.94c1.16,0.43,2.47,0.64,3.94,0.64v-0.01c1.52,0,2.86-0.22,4.04-0.66c1.15-0.42,2.14-1.06,2.99-1.9    c0.71-0.71,1.27-1.52,1.69-2.45c0.08-0.18,0.15-0.36,0.23-0.55c0.45-1.2,0.67-2.57,0.67-4.1h-0.01v0c0-1.4-0.21-2.66-0.64-3.77    c-0.42-1.09-1.04-2.04-1.87-2.87c-0.83-0.83-1.79-1.45-2.89-1.86c-1.13-0.43-2.41-0.64-3.83-0.64v0.01    c-2.24,0-4.11,0.45-5.63,1.35c-0.27,0.16-0.55,0.35-0.83,0.57c-0.28,0.21-0.53,0.44-0.75,0.66l0,0h0h-0.01    c-0.71,0.71-1.28,1.53-1.7,2.45c-0.1,0.21-0.17,0.4-0.23,0.55c-0.44,1.19-0.67,2.54-0.67,4.05h0.01v0c0,1.99,0.44,3.69,1.32,5.11    c0.18,0.3,0.37,0.56,0.55,0.79c0.19,0.24,0.41,0.48,0.66,0.73h0.01l0,0l0,0C56.87,71.9,57.85,72.52,58.97,72.94L58.97,72.94z"></path>
		<path class="st1" d="M62.91,76.55c-1.83,0-3.49-0.28-4.98-0.83c-1.52-0.57-2.86-1.42-4-2.55h-0.01l0,0l0,0    c-0.3-0.3-0.6-0.63-0.88-0.99c-0.29-0.37-0.55-0.72-0.76-1.07c-1.18-1.9-1.77-4.13-1.77-6.68v0h0.01c0-1.87,0.29-3.57,0.85-5.09    c0.11-0.28,0.21-0.53,0.3-0.74c0.57-1.25,1.34-2.36,2.31-3.33l0,0l0,0h0c0.34-0.34,0.68-0.64,1.03-0.91    c0.34-0.27,0.72-0.52,1.13-0.77c1.99-1.19,4.38-1.78,7.15-1.78v0.01c1.79,0,3.42,0.28,4.88,0.83c1.49,0.56,2.8,1.41,3.94,2.54    c1.14,1.13,1.99,2.44,2.55,3.92c0.56,1.45,0.83,3.06,0.83,4.82v0h-0.01c0,1.9-0.28,3.61-0.84,5.13c-0.09,0.25-0.2,0.5-0.31,0.75    c-0.56,1.25-1.33,2.36-2.31,3.33c-1.16,1.15-2.51,2.01-4.06,2.59C66.46,76.28,64.77,76.56,62.91,76.55L62.91,76.55L62.91,76.55z"></path>
		<path class="st1" d="M49.96,75.53h-4.51L34.79,65.15c-0.4-0.39-0.64-0.65-0.73-0.79h-0.08v11.17h-3.23v-22.7h3.23V63.5h0.08    c0.18-0.23,0.42-0.49,0.73-0.77l10.32-9.89h4.03L37.3,63.72L49.96,75.53L49.96,75.53z"></path>
		<path class="st2" d="M58.95,59.73l5.34-1.43c1.37-0.37,2.79,0.45,3.16,1.83l1.43,5.34c0.37,1.37-0.45,2.79-1.83,3.16l-5.34,1.43    c-1.37,0.37-2.8-0.45-3.16-1.83l-1.43-5.34C56.76,61.52,57.58,60.1,58.95,59.73L58.95,59.73z"></path>
	</g>
</g>
</svg>
